SplineFontDB: 3.0
FontName: Fachada-Regular
FullName: Fachada Regular
FamilyName: Fachada
Weight: Regular
Copyright: Copyright (c) 2013 Rui Silva (ruisilva@alfaiataria.org), with Reserved Font Names "Fachada".
FontLog: "A typeface designed by Rui Silva (http://alfaiataria.org)." 
Version: 0.2
ItalicAngle: 0
UnderlinePosition: -50
UnderlineWidth: 50
Ascent: 800
Descent: 200
sfntRevision: 0x00010000
LayerCount: 2
Layer: 0 1 "Back"  1
Layer: 1 1 "Fore"  0
XUID: [1021 880 1058947518 13930305]
FSType: 0
OS2Version: 2
OS2_WeightWidthSlopeOnly: 0
OS2_UseTypoMetrics: 1
CreationTime: 1115684786
ModificationTime: 1448451841
PfmFamily: 81
TTFWeight: 400
TTFWidth: 5
LineGap: 30
VLineGap: 0
Panose: 0 0 0 0 0 0 0 0 0 0
OS2TypoAscent: 750
OS2TypoAOffset: 0
OS2TypoDescent: -170
OS2TypoDOffset: 0
OS2TypoLinegap: 30
OS2WinAscent: 908
OS2WinAOffset: 0
OS2WinDescent: 409
OS2WinDOffset: 0
HheadAscent: 750
HheadAOffset: 0
HheadDescent: -170
HheadDOffset: 0
OS2SubXSize: 700
OS2SubYSize: 650
OS2SubXOff: 0
OS2SubYOff: 140
OS2SupXSize: 700
OS2SupYSize: 650
OS2SupXOff: 0
OS2SupYOff: 477
OS2StrikeYSize: 50
OS2StrikeYPos: 250
OS2Vendor: 'pyrs'
OS2CodePages: 00000001.00000000
OS2UnicodeRanges: 00000003.00000000.00000000.00000000
Lookup: 258 0 0 "'kern' Horizontal Kerning in Latin lookup 0"  {"'kern' Horizontal Kerning in Latin lookup 0 subtable"  } ['kern' ('DFLT' <'dflt' > 'latn' <'dflt' > ) ]
MarkAttachClasses: 1
DEI: 91125
TtTable: prep
PUSHW_1
 0
CALL
EndTTInstrs
TtTable: fpgm
PUSHW_1
 0
FDEF
MPPEM
PUSHW_1
 9
LT
IF
PUSHB_2
 1
 1
INSTCTRL
EIF
PUSHW_1
 511
SCANCTRL
PUSHW_1
 68
SCVTCI
PUSHW_2
 9
 3
SDS
SDB
ENDF
PUSHW_1
 1
FDEF
DUP
DUP
RCVT
ROUND[Black]
WCVTP
PUSHB_1
 1
ADD
ENDF
PUSHW_1
 2
FDEF
PUSHW_1
 1
LOOPCALL
POP
ENDF
PUSHW_1
 3
FDEF
DUP
GC[cur]
PUSHB_1
 3
CINDEX
GC[cur]
GT
IF
SWAP
EIF
DUP
ROLL
DUP
ROLL
MD[grid]
ABS
ROLL
DUP
GC[cur]
DUP
ROUND[Grey]
SUB
ABS
PUSHB_1
 4
CINDEX
GC[cur]
DUP
ROUND[Grey]
SUB
ABS
GT
IF
SWAP
NEG
ROLL
EIF
MDAP[rnd]
DUP
PUSHB_1
 0
GTEQ
IF
ROUND[Black]
DUP
PUSHB_1
 0

StartChar: zero
Encoding: 48 48 4
Width: 699
GlyphClass: 2
Flags: W
LayerCount: 2
Fore
SplineSet
227 295 m 2,0,1
 227 263 227 263 234 235.5 c 128,-1,2
 241 208 241 208 256 187.5 c 128,-1,3
 271 167 271 167 294 155 c 128,-1,4
 317 143 317 143 349 143 c 0,5,6
 380 143 380 143 403.5 155 c 128,-1,7
 427 167 427 167 442 187.5 c 128,-1,8
 457 208 457 208 464.5 235.5 c 128,-1,9
 472 263 472 263 472 295 c 2,10,-1
 472 437 l 1,11,-1
 472 580 l 2,12,13
 472 611 472 611 464.5 639 c 128,-1,14
 457 667 457 667 442 688 c 128,-1,15
 427 709 427 709 403.5 721 c 128,-1,16
 380 733 380 733 349 733 c 0,17,18
 317 733 317 733 294 721 c 128,-1,19
 271 709 271 709 256 688 c 128,-1,20
 241 667 241 667 234 639 c 128,-1,21
 227 611 227 611 227 580 c 2,22,-1
 227 295 l 2,0,1
625 296 m 2,23,24
 625 233 625 233 605.5 177.5 c 128,-1,25
 586 122 586 122 550 80.5 c 128,-1,26
 514 39 514 39 463 15.5 c 128,-1,27
 412 -8 412 -8 348 -8 c 0,28,29
 285 -8 285 -8 234 15.5 c 128,-1,30
 183 39 183 39 147.5 80.5 c 128,-1,31
 112 122 112 122 93 177.5 c 128,-1,32
 74 233 74 233 74 296 c 2,33,-1
 74 581 l 2,34,35
 74 645 74 645 93 701 c 128,-1,36
 112 757 112 757 147.5 798.5 c 128,-1,37
 183 840 183 840 234 864 c 128,-1,38
 285 888 285 888 348 888 c 0,39,40
 412 888 412 888 463 864 c 128,-1,41
 514 840 514 840 550 798.5 c 128,-1,42
 586 757 586 757 605.5 701 c 128,-1,43
 625 645 625 645 625 581 c 2,44,-1
 625 296 l 2,23,24
EndSplineSet
Validated: 1
EndChar

StartChar: one
Encoding: 49 49 5
Width: 488
GlyphClass: 2
Flags: W
LayerCount: 2
Fore
SplineSet
365 879 m 1,0,-1
 365 0 l 1,1,-1
 212 0 l 1,2,-1
 212 533 l 1,3,-1
 36 533 l 1,4,-1
 36 670 l 1,5,-1
 55 670 l 2,6,7
 63 670 63 670 69.5 670.5 c 128,-1,8
 76 671 76 671 78 671 c 0,9,10
 121 671 121 671 153.5 692 c 128,-1,11
 186 713 186 713 206 761 c 0,12,13
 213 778 213 778 217.5 796 c 128,-1,14
 222 814 222 814 225 829 c 0,15,16
 229 847 229 847 230 864 c 1,17,-1
 232 879 l 1,18,-1
 365 879 l 1,0,-1
EndSplineSet
Validated: 1
EndChar

StartChar: two
Encoding: 50 50 6
Width: 725
GlyphClass: 2
Flags: W
LayerCount: 2
Fore
SplineSet
79 599 m 1,0,-1
 79 604 l 2,1,2
 79 662 79 662 101.5 714 c 128,-1,3
 124 766 124 766 162.5 804 c 128,-1,4
 201 842 201 842 252.5 864.5 c 128,-1,5
 304 887 304 887 363 887 c 0,6,7
 421 887 421 887 473 864.5 c 128,-1,8
 525 842 525 842 563.5 804 c 128,-1,9
 602 766 602 766 624.5 714 c 128,-1,10
 647 662 647 662 647 604 c 0,11,12
 647 557 647 557 633 515 c 1,13,-1
 382 186 l 1,14,-1
 659 186 l 1,15,-1
 659 3 l 1,16,-1
 62 3 l 1,17,-1
 62 51 l 1,18,-1
 470 574 l 1,19,20
 471 581 471 581 471.5 587.5 c 128,-1,21
 472 594 472 594 472 599 c 0,22,23
 472 623 472 623 463 644 c 128,-1,24
 454 665 454 665 438.5 680.5 c 128,-1,25
 423 696 423 696 401.5 705 c 128,-1,26
 380 714 380 714 356 714 c 256,27,28
 332 714 332 714 311.5 705 c 128,-1,29
 291 696 291 696 276 680.5 c 128,-1,30
 261 665 261 665 252 644 c 128,-1,31
 243 623 243 623 243 599 c 1,32,-1
 79 599 l 1,0,-1
EndSplineSet
Validated: 1
EndChar

StartChar: three
Encoding: 51 51 7
Width: 721
GlyphClass: 2
Flags: W
LayerCount: 2
Fore
SplineSet
48 254 m 1,0,-1
 186 306 l 1,1,-1
 186 305 l 2,2,3
 186 273 186 273 198 245 c 128,-1,4
 210 217 210 217 231 196 c 128,-1,5
 252 175 252 175 279.5 162.5 c 128,-1,6
 307 150 307 150 339 150 c 0,7,8
 370 150 370 150 398 162.5 c 128,-1,9
 426 175 426 175 447 196 c 128,-1,10
 468 217 468 217 480 245 c 128,-1,11
 492 273 492 273 492 305 c 256,12,13
 492 337 492 337 480 365.5 c 128,-1,14
 468 394 468 394 447 415 c 128,-1,15
 426 436 426 436 398 448.5 c 128,-1,16
 370 461 370 461 339 461 c 0,17,18
 295 461 295 461 257 437 c 1,19,-1
 211 570 l 1,20,-1
 342 739 l 1,21,-1
 136 739 l 1,22,-1
 136 878 l 1,23,-1
 607 878 l 1,24,-1
 400 590 l 1,25,26
 454 590 454 590 500 564.5 c 128,-1,27
 546 539 546 539 579 497 c 128,-1,28
 612 455 612 455 631 400 c 128,-1,29
 650 345 650 345 650 285 c 0,30,31
 650 222 650 222 626.5 167 c 128,-1,32
 603 112 603 112 562 71.5 c 128,-1,33
 521 31 521 31 466 7.5 c 128,-1,34
 411 -16 411 -16 348 -16 c 0,35,36
 289 -16 289 -16 237 4.5 c 128,-1,37
 185 25 185 25 145 61 c 128,-1,38
 105 97 105 97 79.5 146.5 c 128,-1,39
 54 196 54 196 48 254 c 1,0,-1
EndSplineSet
Validated: 1
EndChar

StartChar: four
Encoding: 52 52 8
Width: 637
GlyphClass: 2
Flags: W
LayerCount: 2
Fore
SplineSet
498 879 m 1,0,-1
 498 306 l 1,1,-1
 589 306 l 1,2,-1
 589 153 l 1,3,-1
 498 153 l 1,4,-1
 498 0 l 1,5,-1
 345 0 l 1,6,-1
 345 153 l 1,7,-1
 46 153 l 1,8,-1
 46 306 l 1,9,10
 138 463 138 463 210 588 c 0,11,12
 241 641 241 641 270.5 692.5 c 128,-1,13
 300 744 300 744 323 784.5 c 128,-1,14
 346 825 346 825 360.5 851 c 128,-1,15
 375 877 375 877 375 879 c 1,16,-1
 498 879 l 1,0,-1
345 492 m 1,17,-1
 244 317 l 1,18,-1
 345 317 l 1,19,-1
 345 492 l 1,17,-1
EndSplineSet
Validated: 1
EndChar

StartChar: five
Encoding: 53 53 9
Width: 691
GlyphClass: 2
Flags: W
LayerCount: 2
Fore
SplineSet
62 124 m 1,0,-1
 160 237 l 1,1,2
 174 197 174 197 210 171.5 c 128,-1,3
 246 146 246 146 291 146 c 0,4,5
 360 146 360 146 404 185.5 c 128,-1,6
 448 225 448 225 448 300 c 0,7,8
 448 337 448 337 435.5 366.5 c 128,-1,9
 423 396 423 396 401.5 416.5 c 128,-1,10
 380 437 380 437 351.5 447.5 c 128,-1,11
 323 458 323 458 291 458 c 0,12,13
 252 458 252 458 221.5 438 c 128,-1,14
 191 418 191 418 172 387 c 1,15,-1
 66 482 l 1,16,-1
 251 863 l 1,17,-1
 409 863 l 1,18,-1
 398 845 l 1,19,20
 406 841 406 841 419 837 c 0,21,22
 430 834 430 834 449 831.5 c 128,-1,23
 468 829 468 829 497 829 c 0,24,25
 523 829 523 829 547 837 c 128,-1,26
 571 845 571 845 590 855 c 0,27,28
 612 866 612 866 631 882 c 1,29,-1
 553 724 l 1,30,31
 541 715 541 715 526 709 c 0,32,33
 512 703 512 703 493.5 698.5 c 128,-1,34
 475 694 475 694 452 694 c 0,35,36
 432 694 432 694 412.5 698.5 c 128,-1,37
 393 703 393 703 377 709 c 0,38,39
 359 715 359 715 341 724 c 1,40,-1
 282 602 l 1,41,-1
 299 602 l 2,42,43
 359 602 359 602 413 577.5 c 128,-1,44
 467 553 467 553 508 511 c 128,-1,45
 549 469 549 469 573 414.5 c 128,-1,46
 597 360 597 360 597 300 c 0,47,48
 597 234 597 234 573 178 c 128,-1,49
 549 122 549 122 508 81 c 128,-1,50
 467 40 467 40 413 17 c 128,-1,51
 359 -6 359 -6 299 -6 c 0,52,53
 225 -6 225 -6 162 30 c 128,-1,54
 99 66 99 66 62 123 c 1,55,-1
 62 124 l 1,0,-1
EndSplineSet
Validated: 1
EndChar

StartChar: six
Encoding: 54 54 10
Width: 710
GlyphClass: 2
Flags: W
LayerCount: 2
Fore
SplineSet
228 299 m 0,0,1
 228 267 228 267 237 239.5 c 128,-1,2
 246 212 246 212 262.5 191.5 c 128,-1,3
 279 171 279 171 303.5 159 c 128,-1,4
 328 147 328 147 360 147 c 0,5,6
 391 147 391 147 416 159 c 128,-1,7
 441 171 441 171 458 191.5 c 128,-1,8
 475 212 475 212 484 239.5 c 128,-1,9
 493 267 493 267 493 299 c 0,10,11
 493 330 493 330 484 358 c 128,-1,12
 475 386 475 386 458 407 c 128,-1,13
 441 428 441 428 416 440 c 128,-1,14
 391 452 391 452 360 452 c 0,15,16
 328 452 328 452 303.5 440 c 128,-1,17
 279 428 279 428 262.5 407 c 128,-1,18
 246 386 246 386 237 358 c 128,-1,19
 228 330 228 330 228 299 c 0,0,1
255 577 m 1,20,21
 263 583 263 583 271.5 587 c 4,22,23
 295 598 295 598 318 602.5 c 0,24,25
 342 607 342 607 359 607 c 0,26,27
 423 607 423 607 475.5 583 c 128,-1,28
 528 559 528 559 566 517.5 c 128,-1,29
 604 476 604 476 625 420 c 128,-1,30
 646 364 646 364 646 300 c 0,31,32
 646 237 646 237 625 181.5 c 128,-1,33
 604 126 604 126 566 84.5 c 128,-1,34
 528 43 528 43 475.5 19.5 c 128,-1,35
 423 -4 423 -4 359 -4 c 0,36,37
 296 -4 296 -4 243.5 19.5 c 128,-1,38
 191 43 191 43 153.5 84.5 c 128,-1,39
 116 126 116 126 95.5 181.5 c 128,-1,40
 75 237 75 237 75 300 c 2,41,-1
 75 368 l 2,42,43
 75 491 75 491 92.5 576.5 c 128,-1,44
 110 662 110 662 141 718.5 c 128,-1,45
 172 775 172 775 214 807.5 c 128,-1,46
 256 840 256 840 305.5 855.5 c 128,-1,47
 355 871 355 871 409 875 c 128,-1,48
 463 879 463 879 519 879 c 1,49,-1
 519 728 l 1,50,51
 467 728 467 728 417 717.5 c 128,-1,52
 367 707 367 707 328 679.5 c 0,53,54
 290 653 290 653 265 603 c 0,55,56
 259 591 259 591 255 577 c 1,20,21
EndSplineSet
Validated: 1
EndChar

StartChar: seven
Encoding: 55 55 11
Width: 638
GlyphClass: 2
Flags: W
LayerCount: 2
Fore
SplineSet
143 0 m 1,0,-1
 393 724 l 1,1,-1
 57 724 l 1,2,-1
 59 878 l 1,3,-1
 603 878 l 1,4,-1
 299 0 l 1,5,-1
 143 0 l 1,0,-1
EndSplineSet
Validated: 1
EndChar

StartChar: eight
Encoding: 56 56 12
Width: 749
GlyphClass: 2
Flags: W
LayerCount: 2
Fore
SplineSet
237 283 m 0,0,1
 237 254 237 254 247.5 228.5 c 128,-1,2
 258 203 258 203 277 184.5 c 128,-1,3
 296 166 296 166 321 155 c 128,-1,4
 346 144 346 144 375 144 c 0,5,6
 403 144 403 144 428.5 155 c 128,-1,7
 454 166 454 166 472.5 184.5 c 128,-1,8
 491 203 491 203 502 228.5 c 128,-1,9
 513 254 513 254 513 283 c 0,10,11
 513 311 513 311 502 336.5 c 128,-1,12
 491 362 491 362 472.5 380.5 c 128,-1,13
 454 399 454 399 428.5 410 c 128,-1,14
 403 421 403 421 375 421 c 0,15,16
 346 421 346 421 321 410 c 128,-1,17
 296 399 296 399 277 380.5 c 128,-1,18
 258 362 258 362 247.5 336.5 c 128,-1,19
 237 311 237 311 237 283 c 0,0,1
280 664 m 256,20,21
 280 642 280 642 287.5 623 c 128,-1,22
 295 604 295 604 308 589.5 c 128,-1,23
 321 575 321 575 338 567 c 128,-1,24
 355 559 355 559 375 559 c 0,25,26
 394 559 394 559 410.5 567 c 128,-1,27
 427 575 427 575 440 589.5 c 128,-1,28
 453 604 453 604 460.5 623 c 128,-1,29
 468 642 468 642 468 664 c 256,30,31
 468 686 468 686 460.5 705 c 128,-1,32
 453 724 453 724 440 738 c 128,-1,33
 427 752 427 752 410.5 760.5 c 128,-1,34
 394 769 394 769 375 769 c 0,35,36
 355 769 355 769 338 760.5 c 128,-1,37
 321 752 321 752 308 738 c 128,-1,38
 295 724 295 724 287.5 705 c 128,-1,39
 280 686 280 686 280 664 c 256,20,21
71 292 m 0,40,41
 71 363 71 363 100.5 423.5 c 128,-1,42
 130 484 130 484 180 526 c 1,43,44
 158 556 158 556 146 591.5 c 128,-1,45
 134 627 134 627 134 669 c 0,46,47
 134 718 134 718 153 762 c 128,-1,48
 172 806 172 806 204.5 838 c 128,-1,49
 237 870 237 870 281 889 c 128,-1,50
 325 908 325 908 375 908 c 256,51,52
 425 908 425 908 468.5 889 c 128,-1,53
 512 870 512 870 544.5 838 c 128,-1,54
 577 806 577 806 596 762 c 128,-1,55
 615 718 615 718 615 669 c 0,56,57
 615 627 615 627 603 591.5 c 128,-1,58
 591 556 591 556 569 526 c 1,59,60
 620 484 620 484 649 423.5 c 128,-1,61
 678 363 678 363 678 292 c 0,62,63
 678 228 678 228 654 172 c 128,-1,64
 630 116 630 116 588.5 74 c 128,-1,65
 547 32 547 32 492 8 c 128,-1,66
 437 -16 437 -16 375 -16 c 0,67,68
 312 -16 312 -16 256.5 8 c 128,-1,69
 201 32 201 32 159.5 74 c 128,-1,70
 118 116 118 116 94.5 172 c 128,-1,71
 71 228 71 228 71 292 c 0,40,41
EndSplineSet
Validated: 1
EndChar

StartChar: nine
Encoding: 57 57 13
Width: 729
GlyphClass: 2
Flags: W
LayerCount: 2
Fore
SplineSet
217 584 m 0,0,1
 217 552 217 552 227.5 524.5 c 128,-1,2
 238 497 238 497 256.5 476.5 c 128,-1,3
 275 456 275 456 301 444 c 128,-1,4
 327 432 327 432 359 432 c 0,5,6
 390 432 390 432 416.5 444 c 128,-1,7
 443 456 443 456 462 476.5 c 128,-1,8
 481 497 481 497 491.5 524.5 c 128,-1,9
 502 552 502 552 502 584 c 0,10,11
 502 615 502 615 491.5 643 c 128,-1,12
 481 671 481 671 462 692 c 128,-1,13
 443 713 443 713 416.5 725 c 128,-1,14
 390 737 390 737 359 737 c 0,15,16
 327 737 327 737 301 725 c 128,-1,17
 275 713 275 713 256.5 692 c 128,-1,18
 238 671 238 671 227.5 643 c 128,-1,19
 217 615 217 615 217 584 c 0,0,1
64 585 m 0,20,21
 64 649 64 649 86 705 c 128,-1,22
 108 761 108 761 147.5 802.5 c 128,-1,23
 187 844 187 844 241 868 c 128,-1,24
 295 892 295 892 358 892 c 0,25,26
 422 892 422 892 476 868 c 128,-1,27
 530 844 530 844 570 802.5 c 128,-1,28
 610 761 610 761 632.5 705 c 128,-1,29
 655 649 655 649 655 585 c 0,30,31
 655 519 655 519 630 460 c 1,32,-1
 630 459 l 1,33,34
 625 448 625 448 619 437.5 c 128,-1,35
 613 427 613 427 607 416 c 2,36,-1
 388 1 l 1,37,-1
 235 1 l 1,38,-1
 393 282 l 1,39,-1
 394 283 l 1,40,41
 386 281 386 281 376.5 281 c 128,-1,42
 367 281 367 281 358 281 c 0,43,44
 295 281 295 281 241 304.5 c 128,-1,45
 187 328 187 328 147.5 369.5 c 128,-1,46
 108 411 108 411 86 466.5 c 128,-1,47
 64 522 64 522 64 585 c 0,20,21
EndSplineSet
Validated: 1
EndChar

StartChar: A
Encoding: 65 65 15
Width: 648
GlyphClass: 2
Flags: W
LayerCount: 2
Fore
SplineSet
263 307 m 1,0,-1
 386 307 l 1,1,-1
 324 479 l 1,2,-1
 263 307 l 1,3,-1
 263 307 l 1,0,-1
207 154 m 1,4,-1
 152 1 l 1,5,-1
 0 1 l 1,6,-1
 324 900 l 1,7,-1
 648 1 l 1,8,-1
 496 1 l 1,9,-1
 441 154 l 1,10,-1
 207 154 l 1,11,-1
 207 154 l 1,4,-1
EndSplineSet
Validated: 5
EndChar

StartChar: B
Encoding: 66 66 16
Width: 742
GlyphClass: 2
Flags: W
LayerCount: 2
Fore
SplineSet
274 449 m 1,0,-1
 274 153 l 1,1,-1
 382 153 l 2,2,3
 448 153 448 153 485.5 186.5 c 128,-1,4
 523 220 523 220 523 300 c 0,5,6
 523 333 523 333 516 360 c 128,-1,7
 509 387 509 387 492.5 407 c 128,-1,8
 476 427 476 427 449 438 c 128,-1,9
 422 449 422 449 382 449 c 2,10,-1
 274 449 l 1,0,-1
274 724 m 1,11,-1
 274 602 l 1,12,-1
 330 602 l 2,13,14
 337 602 337 602 346.5 603.5 c 128,-1,15
 356 605 356 605 365 611.5 c 128,-1,16
 374 618 374 618 380 631.5 c 128,-1,17
 386 645 386 645 386 669 c 0,18,19
 386 687 386 687 380 698 c 128,-1,20
 374 709 374 709 365 714.5 c 128,-1,21
 356 720 356 720 346.5 722 c 128,-1,22
 337 724 337 724 330 724 c 2,23,-1
 274 724 l 1,11,-1
121 878 m 1,24,-1
 303 878 l 2,25,26
 374 878 374 878 418.5 855 c 128,-1,27
 463 832 463 832 488 799.5 c 128,-1,28
 513 767 513 767 522 733.5 c 128,-1,29
 531 700 531 700 531 679 c 0,30,31
 531 653 531 653 524.5 631.5 c 128,-1,32
 518 610 518 610 510 595 c 0,33,34
 501 577 501 577 490 563 c 1,35,36
 543 557 543 557 584 525 c 0,37,38
 602 511 602 511 618.5 491 c 128,-1,39
 635 471 635 471 648.5 442 c 128,-1,40
 662 413 662 413 670 374.5 c 128,-1,41
 678 336 678 336 678 286 c 0,42,43
 678 214 678 214 658.5 165.5 c 128,-1,44
 639 117 639 117 608.5 85 c 128,-1,45
 578 53 578 53 541 36 c 128,-1,46
 504 19 504 19 469.5 11 c 128,-1,47
 435 3 435 3 407.5 1.5 c 128,-1,48
 380 0 380 0 368 0 c 2,49,-1
 121 0 l 1,50,-1
 121 878 l 1,24,-1
EndSplineSet
Validated: 1
EndChar

StartChar: C
Encoding: 67 67 17
Width: 610
GlyphClass: 2
Flags: W
LayerCount: 2
Fore
SplineSet
564 725 m 1,0,1
 546 731 546 731 526 734.5 c 128,-1,2
 506 738 506 738 485 738 c 0,3,4
 426 738 426 738 376 714 c 128,-1,5
 326 690 326 690 289.5 648.5 c 128,-1,6
 253 607 253 607 232 551.5 c 128,-1,7
 211 496 211 496 211 434 c 256,8,9
 211 372 211 372 232 318 c 128,-1,10
 253 264 253 264 289.5 224.5 c 128,-1,11
 326 185 326 185 376 162.5 c 128,-1,12
 426 140 426 140 485 140 c 0,13,14
 526 140 526 140 564 152 c 1,15,-1
 564 2 l 1,16,17
 549 0 549 0 535 -2 c 0,18,19
 523 -4 523 -4 509.5 -5 c 128,-1,20
 496 -6 496 -6 485 -6 c 0,21,22
 397 -6 397 -6 320.5 28.5 c 128,-1,23
 244 63 244 63 187 122.5 c 128,-1,24
 130 182 130 182 97.5 262 c 128,-1,25
 65 342 65 342 65 434 c 256,26,27
 65 526 65 526 97.5 607.5 c 128,-1,28
 130 689 130 689 187 750.5 c 128,-1,29
 244 812 244 812 320.5 848 c 128,-1,30
 397 884 397 884 485 884 c 0,31,32
 496 884 496 884 509.5 883 c 128,-1,33
 523 882 523 882 535 880 c 0,34,35
 549 878 549 878 564 876 c 1,36,-1
 564 725 l 1,0,1
EndSplineSet
Validated: 1
EndChar

StartChar: D
Encoding: 68 68 18
Width: 741
GlyphClass: 2
Flags: W
LayerCount: 2
Fore
SplineSet
274 153 m 1,0,1
 328 157 328 157 374.5 180.5 c 128,-1,2
 421 204 421 204 455.5 242 c 128,-1,3
 490 280 490 280 509.5 330.5 c 128,-1,4
 529 381 529 381 529 439 c 0,5,6
 529 493 529 493 509.5 541 c 128,-1,7
 490 589 490 589 455.5 626.5 c 128,-1,8
 421 664 421 664 374.5 687 c 128,-1,9
 328 710 328 710 274 714 c 1,10,-1
 274 153 l 1,0,1
274 879 m 1,11,12
 358 871 358 871 431 834.5 c 128,-1,13
 504 798 504 798 557.5 739.5 c 128,-1,14
 611 681 611 681 641.5 604 c 128,-1,15
 672 527 672 527 672 439 c 0,16,17
 672 350 672 350 641.5 272 c 128,-1,18
 611 194 611 194 557.5 134.5 c 128,-1,19
 504 75 504 75 431 39.5 c 128,-1,20
 358 4 358 4 274 0 c 1,21,-1
 121 0 l 1,22,-1
 121 879 l 1,23,-1
 274 879 l 1,11,12
EndSplineSet
Validated: 1
EndChar

StartChar: E
Encoding: 69 69 19
Width: 688
GlyphClass: 2
Flags: W
LayerCount: 2
Fore
SplineSet
121 0 m 1,0,-1
 121 878 l 1,1,-1
 570 878 l 1,2,-1
 570 724 l 1,3,-1
 274 724 l 1,4,-1
 274 602 l 1,5,-1
 478 602 l 1,6,-1
 478 438 l 1,7,-1
 274 438 l 1,8,-1
 274 153 l 1,9,-1
 621 153 l 1,10,-1
 621 0 l 1,11,-1
 121 0 l 1,12,-1
 121 0 l 1,0,-1
EndSplineSet
Validated: 5
EndChar

StartChar: F
Encoding: 70 70 20
Width: 641
GlyphClass: 2
Flags: W
LayerCount: 2
Fore
SplineSet
274 0 m 1,0,-1
 121 0 l 1,1,-1
 121 878 l 1,2,-1
 590 878 l 1,3,-1
 590 724 l 1,4,-1
 274 724 l 1,5,-1
 274 602 l 1,6,-1
 479 602 l 1,7,-1
 479 438 l 1,8,-1
 274 438 l 1,9,-1
 274 0 l 1,0,-1
EndSplineSet
Validated: 1
EndChar

StartChar: G
Encoding: 71 71 21
Width: 673
GlyphClass: 2
Flags: W
LayerCount: 2
Fore
SplineSet
499 722 m 0,0,1
 435 722 435 722 384.5 700 c 128,-1,2
 334 678 334 678 299 639 c 128,-1,3
 264 600 264 600 245.5 546 c 128,-1,4
 227 492 227 492 227 427 c 0,5,6
 227 306 227 306 286 238 c 128,-1,7
 345 170 345 170 459 155 c 1,8,-1
 459 427 l 1,9,-1
 370 427 l 1,10,-1
 370 579 l 1,11,-1
 601 579 l 1,12,-1
 601 4 l 1,13,14
 578 -4 578 -4 554.5 -5 c 128,-1,15
 531 -6 531 -6 499 -6 c 0,16,17
 409 -6 409 -6 329.5 26 c 128,-1,18
 250 58 250 58 191.5 116 c 128,-1,19
 133 174 133 174 99 253 c 128,-1,20
 65 332 65 332 65 427 c 256,21,22
 65 522 65 522 99 605 c 128,-1,23
 133 688 133 688 191.5 749.5 c 128,-1,24
 250 811 250 811 329.5 846.5 c 128,-1,25
 409 882 409 882 499 882 c 0,26,27
 531 882 531 882 554.5 881 c 128,-1,28
 578 880 578 880 601 873 c 1,29,-1
 601 711 l 1,30,31
 578 719 578 719 554.5 720.5 c 128,-1,32
 531 722 531 722 499 722 c 0,0,1
EndSplineSet
Validated: 1
EndChar

StartChar: H
Encoding: 72 72 22
Width: 701
GlyphClass: 2
Flags: W
LayerCount: 2
Fore
SplineSet
427 448 m 1,0,-1
 274 448 l 1,1,-1
 274 0 l 1,2,-1
 121 0 l 1,3,-1
 121 878 l 1,4,-1
 274 878 l 1,5,-1
 274 602 l 1,6,-1
 427 602 l 1,7,-1
 427 878 l 1,8,-1
 580 878 l 1,9,-1
 580 0 l 1,10,-1
 427 0 l 1,11,-1
 427 448 l 1,12,-1
 427 448 l 1,0,-1
427 602 m 1,13,-1
 274 602 l 1,14,-1
 427 602 l 1,15,-1
 427 602 l 1,13,-1
EndSplineSet
Validated: 5
EndChar

StartChar: I
Encoding: 73 73 23
Width: 395
GlyphClass: 2
Flags: W
LayerCount: 2
Fore
SplineSet
274 878 m 1,0,-1
 274 0 l 1,1,-1
 121 0 l 1,2,-1
 121 878 l 1,3,-1
 274 878 l 1,0,-1
EndSplineSet
Validated: 1
EndChar

StartChar: J
Encoding: 74 74 24
Width: 667
GlyphClass: 2
Flags: W
LayerCount: 2
Fore
SplineSet
38 266 m 1,0,-1
 178 266 l 1,1,2
 178 243 178 243 184 221.5 c 128,-1,3
 190 200 190 200 202 183 c 128,-1,4
 214 166 214 166 233 155.5 c 128,-1,5
 252 145 252 145 278 145 c 0,6,7
 347 145 347 145 373.5 175 c 128,-1,8
 400 205 400 205 400 266 c 2,9,-1
 400 727 l 1,10,-1
 258 727 l 1,11,-1
 258 878 l 1,12,-1
 553 878 l 1,13,-1
 553 245 l 2,14,15
 553 180 553 180 537 136 c 128,-1,16
 521 92 521 92 496 64 c 128,-1,17
 471 36 471 36 439 21.5 c 128,-1,18
 407 7 407 7 376 1 c 128,-1,19
 345 -5 345 -5 317 -5.5 c 128,-1,20
 289 -6 289 -6 271 -6 c 0,21,22
 229 -6 229 -6 187.5 12.5 c 128,-1,23
 146 31 146 31 113 65 c 128,-1,24
 80 99 80 99 59 147.5 c 128,-1,25
 38 196 38 196 38 256 c 2,26,-1
 38 266 l 1,0,-1
EndSplineSet
Validated: 1
EndChar

StartChar: K
Encoding: 75 75 25
Width: 670
GlyphClass: 2
Flags: W
LayerCount: 2
Fore
SplineSet
274 0 m 1,0,-1
 121 0 l 1,1,-1
 121 878 l 1,2,-1
 274 878 l 1,3,-1
 274 593 l 1,4,-1
 421 878 l 1,5,-1
 598 878 l 1,6,-1
 414 522 l 1,7,-1
 652 0 l 1,8,-1
 481 0 l 1,9,-1
 274 454 l 1,10,-1
 274 0 l 1,0,-1
EndSplineSet
Validated: 1
EndChar

StartChar: L
Encoding: 76 76 26
Width: 661
GlyphClass: 2
Flags: W
LayerCount: 2
Fore
SplineSet
274 878 m 1,0,-1
 274 153 l 1,1,-1
 621 153 l 1,2,-1
 621 0 l 1,3,-1
 121 0 l 1,4,-1
 121 878 l 1,5,-1
 274 878 l 1,6,-1
 274 878 l 1,0,-1
EndSplineSet
Validated: 5
EndChar

StartChar: M
Encoding: 77 77 27
Width: 823
GlyphClass: 2
Flags: W
LayerCount: 2
Fore
SplineSet
559 879 m 1,0,-1
 702 879 l 1,1,-1
 702 0 l 1,2,-1
 549 0 l 1,3,-1
 549 563 l 1,4,-1
 406 400 l 1,5,-1
 274 563 l 1,6,-1
 274 0 l 1,7,-1
 121 0 l 1,8,-1
 121 879 l 1,9,-1
 254 879 l 1,10,-1
 406 655 l 1,11,-1
 559 879 l 1,12,-1
 559 879 l 1,0,-1
EndSplineSet
Validated: 5
EndChar

StartChar: N
Encoding: 78 78 28
Width: 761
GlyphClass: 2
Flags: W
LayerCount: 2
Fore
SplineSet
274 446 m 1,0,-1
 274 0 l 1,1,-1
 121 0 l 1,2,-1
 121 899 l 1,3,-1
 487 433 l 1,4,-1
 487 878 l 1,5,-1
 640 878 l 1,6,-1
 640 -20 l 1,7,-1
 274 446 l 1,0,-1
EndSplineSet
Validated: 1
EndChar

StartChar: O
Encoding: 79 79 29
Width: 951
GlyphClass: 2
Flags: W
LayerCount: 2
Fore
SplineSet
219 434 m 256,0,1
 219 374 219 374 238 321.5 c 128,-1,2
 257 269 257 269 290.5 231 c 128,-1,3
 324 193 324 193 371 171 c 128,-1,4
 418 149 418 149 475 149 c 256,5,6
 532 149 532 149 579.5 171 c 128,-1,7
 627 193 627 193 660.5 231 c 128,-1,8
 694 269 694 269 713 321.5 c 128,-1,9
 732 374 732 374 732 434 c 256,10,11
 732 494 732 494 713 548 c 128,-1,12
 694 602 694 602 660.5 642 c 128,-1,13
 627 682 627 682 579.5 705.5 c 128,-1,14
 532 729 532 729 475 729 c 256,15,16
 418 729 418 729 371 705.5 c 128,-1,17
 324 682 324 682 290.5 642 c 128,-1,18
 257 602 257 602 238 548 c 128,-1,19
 219 494 219 494 219 434 c 256,0,1
65 434 m 256,20,21
 65 526 65 526 96 607.5 c 128,-1,22
 127 689 127 689 182 750.5 c 128,-1,23
 237 812 237 812 312 848 c 128,-1,24
 387 884 387 884 475 884 c 256,25,26
 563 884 563 884 638.5 848 c 128,-1,27
 714 812 714 812 769 750.5 c 128,-1,28
 824 689 824 689 855 607.5 c 128,-1,29
 886 526 886 526 886 434 c 256,30,31
 886 342 886 342 855 262 c 128,-1,32
 824 182 824 182 769 122.5 c 128,-1,33
 714 63 714 63 638.5 28.5 c 128,-1,34
 563 -6 563 -6 475 -6 c 256,35,36
 387 -6 387 -6 312 28.5 c 128,-1,37
 237 63 237 63 182 122.5 c 128,-1,38
 127 182 127 182 96 262 c 128,-1,39
 65 342 65 342 65 434 c 256,20,21
EndSplineSet
Validated: 1
EndChar

StartChar: P
Encoding: 80 80 30
Width: 701
GlyphClass: 2
Flags: W
LayerCount: 2
Fore
SplineSet
273 724 m 1,0,-1
 273 307 l 1,1,2
 319 307 319 307 359.5 323.5 c 128,-1,3
 400 340 400 340 430.5 368.5 c 128,-1,4
 461 397 461 397 479 436 c 128,-1,5
 497 475 497 475 497 521 c 0,6,7
 497 563 497 563 479 600 c 128,-1,8
 461 637 461 637 430.5 664.5 c 128,-1,9
 400 692 400 692 359.5 708 c 128,-1,10
 319 724 319 724 273 724 c 1,0,-1
283 877 m 2,11,12
 359 877 359 877 426 848.5 c 128,-1,13
 493 820 493 820 542.5 771.5 c 128,-1,14
 592 723 592 723 620.5 658 c 128,-1,15
 649 593 649 593 649 521 c 256,16,17
 649 449 649 449 620.5 384 c 128,-1,18
 592 319 592 319 542.5 270.5 c 128,-1,19
 493 222 493 222 426 193.5 c 128,-1,20
 359 165 359 165 283 165 c 2,21,-1
 273 165 l 1,22,-1
 273 0 l 1,23,-1
 121 0 l 1,24,-1
 121 877 l 1,25,-1
 273 877 l 1,26,-1
 283 877 l 2,11,12
EndSplineSet
Validated: 1
EndChar

StartChar: Q
Encoding: 81 81 31
Width: 1022
GlyphClass: 2
Flags: W
LayerCount: 2
Fore
SplineSet
209 435 m 256,0,1
 209 374 209 374 232.5 320 c 128,-1,2
 256 266 256 266 296.5 225.5 c 128,-1,3
 337 185 337 185 391 161.5 c 128,-1,4
 445 138 445 138 506 138 c 0,5,6
 534 138 534 138 562 144.5 c 128,-1,7
 590 151 590 151 616 162.5 c 128,-1,8
 642 174 642 174 665 189.5 c 128,-1,9
 688 205 688 205 706 223 c 1,10,11
 692 231 692 231 670.5 237 c 128,-1,12
 649 243 649 243 620 243 c 1,13,-1
 611 377 l 1,14,15
 643 377 643 377 667 372 c 128,-1,16
 691 367 691 367 710 360 c 128,-1,17
 729 353 729 353 744 344 c 128,-1,18
 759 335 759 335 773 328 c 1,19,20
 781 357 781 357 787 381.5 c 128,-1,21
 793 406 793 406 793 435 c 0,22,23
 793 496 793 496 769.5 549.5 c 128,-1,24
 746 603 746 603 706.5 643.5 c 128,-1,25
 667 684 667 684 615 707.5 c 128,-1,26
 563 731 563 731 506 731 c 0,27,28
 445 731 445 731 391 707.5 c 128,-1,29
 337 684 337 684 296.5 643.5 c 128,-1,30
 256 603 256 603 232.5 549.5 c 128,-1,31
 209 496 209 496 209 435 c 256,0,1
65 435 m 0,32,33
 65 528 65 528 98.5 610 c 128,-1,34
 132 692 132 692 191.5 752.5 c 128,-1,35
 251 813 251 813 331.5 848.5 c 128,-1,36
 412 884 412 884 506 884 c 0,37,38
 595 884 595 884 673.5 848.5 c 128,-1,39
 752 813 752 813 810.5 752.5 c 128,-1,40
 869 692 869 692 902.5 610 c 128,-1,41
 936 528 936 528 936 435 c 0,42,43
 936 377 936 377 923 325.5 c 128,-1,44
 910 274 910 274 888 223 c 1,45,46
 899 205 899 205 907.5 189.5 c 128,-1,47
 916 174 916 174 929.5 162.5 c 128,-1,48
 943 151 943 151 964.5 144.5 c 128,-1,49
 986 138 986 138 1022 138 c 1,50,-1
 1022 -6 l 1,51,52
 968 -6 968 -6 934 4 c 128,-1,53
 900 14 900 14 877.5 31 c 128,-1,54
 855 48 855 48 840.5 70.5 c 128,-1,55
 826 93 826 93 812 118 c 1,56,57
 746 60 746 60 669 27 c 128,-1,58
 592 -6 592 -6 506 -6 c 0,59,60
 412 -6 412 -6 331.5 27.5 c 128,-1,61
 251 61 251 61 191.5 120.5 c 128,-1,62
 132 180 132 180 98.5 260.5 c 128,-1,63
 65 341 65 341 65 435 c 0,32,33
EndSplineSet
Validated: 1
EndChar

StartChar: R
Encoding: 82 82 32
Width: 671
GlyphClass: 2
Flags: W
LayerCount: 2
Fore
SplineSet
274 337 m 1,0,1
 352 337 352 337 408 390 c 0,2,3
 467 445 467 445 467 519 c 256,4,5
 467 595 467 595 408 650 c 0,6,7
 351 704 351 704 274 704 c 1,8,-1
 274 337 l 1,0,1
274 0 m 1,9,-1
 121 0 l 1,10,-1
 121 877 l 1,11,-1
 223 877 l 2,12,13
 407 877 407 877 516 772 c 0,14,15
 567 723 567 723 593.5 657.5 c 128,-1,16
 620 592 620 592 620 519 c 0,17,18
 620 420 620 420 571 340 c 128,-1,19
 522 260 522 260 438 214 c 1,20,-1
 610 0 l 1,21,-1
 416 0 l 1,22,-1
 314 172 l 1,23,24
 285.583 161.917 285.583 161.917 275.653 161.917 c 0,25,26
 274.75 161.917 274.75 161.917 274 162 c 0,27,-1
 274 0 l 1,9,-1
EndSplineSet
EndChar

StartChar: S
Encoding: 83 83 33
Width: 747
GlyphClass: 2
Flags: W
LayerCount: 2
Fore
SplineSet
203 307 m 1,0,1
 207 273 207 273 220 243 c 128,-1,2
 233 213 233 213 253 191 c 128,-1,3
 273 169 273 169 301.5 156.5 c 128,-1,4
 330 144 330 144 366 144 c 0,5,6
 412 144 412 144 442 159 c 128,-1,7
 472 174 472 174 490 198 c 128,-1,8
 508 222 508 222 515 250.5 c 128,-1,9
 522 279 522 279 522 306 c 0,10,11
 522 345 522 345 498 376 c 128,-1,12
 474 407 474 407 437.5 434.5 c 128,-1,13
 401 462 401 462 359 489 c 128,-1,14
 317 516 317 516 280.5 547.5 c 128,-1,15
 244 579 244 579 220 617.5 c 128,-1,16
 196 656 196 656 196 706 c 0,17,18
 196 743 196 743 211.5 776.5 c 128,-1,19
 227 810 227 810 253.5 835 c 128,-1,20
 280 860 280 860 314 875 c 128,-1,21
 348 890 348 890 385 890 c 256,22,23
 422 890 422 890 457 875 c 128,-1,24
 492 860 492 860 519.5 835 c 128,-1,25
 547 810 547 810 563.5 776.5 c 128,-1,26
 580 743 580 743 580 706 c 1,27,-1
 436 706 l 1,28,29
 436 724 436 724 423.5 737 c 128,-1,30
 411 750 411 750 392 750 c 0,31,32
 375 750 375 750 362 737 c 128,-1,33
 349 724 349 724 349 706 c 0,34,35
 349 682 349 682 374 660.5 c 128,-1,36
 399 639 399 639 436.5 615 c 128,-1,37
 474 591 474 591 517.5 562.5 c 128,-1,38
 561 534 561 534 598.5 496.5 c 128,-1,39
 636 459 636 459 661 411 c 128,-1,40
 686 363 686 363 686 300 c 0,41,42
 686 249 686 249 667 194 c 128,-1,43
 648 139 648 139 610.5 94 c 128,-1,44
 573 49 573 49 516 19.5 c 128,-1,45
 459 -10 459 -10 384 -10 c 0,46,47
 308 -10 308 -10 249 14 c 128,-1,48
 190 38 190 38 148 80 c 128,-1,49
 106 122 106 122 81.5 180 c 128,-1,50
 57 238 57 238 50 307 c 1,51,-1
 203 307 l 1,0,1
EndSplineSet
Validated: 1
EndChar

StartChar: T
Encoding: 84 84 34
Width: 609
GlyphClass: 2
Flags: W
LayerCount: 2
Fore
SplineSet
381 0 m 1,0,-1
 228 0 l 1,1,-1
 228 724 l 1,2,-1
 38 724 l 1,3,-1
 38 878 l 1,4,-1
 571 878 l 1,5,-1
 571 724 l 1,6,-1
 381 724 l 1,7,-1
 381 0 l 1,0,-1
EndSplineSet
Validated: 1
EndChar

StartChar: U
Encoding: 85 85 35
Width: 749
GlyphClass: 2
Flags: W
LayerCount: 2
Fore
SplineSet
486 878 m 1,0,-1
 639 878 l 1,1,-1
 639 204 l 2,2,3
 639 155 639 155 617 116 c 128,-1,4
 595 77 595 77 558.5 50 c 128,-1,5
 522 23 522 23 475.5 8.5 c 128,-1,6
 429 -6 429 -6 380 -6 c 256,7,8
 331 -6 331 -6 282.5 8.5 c 128,-1,9
 234 23 234 23 196 50 c 128,-1,10
 158 77 158 77 134 116 c 128,-1,11
 110 155 110 155 110 204 c 2,12,-1
 110 878 l 1,13,-1
 263 878 l 1,14,-1
 263 252 l 2,15,16
 263 219 263 219 271.5 198 c 128,-1,17
 280 177 280 177 295.5 165 c 128,-1,18
 311 153 311 153 332.5 148.5 c 128,-1,19
 354 144 354 144 380 144 c 256,20,21
 406 144 406 144 425.5 148.5 c 128,-1,22
 445 153 445 153 458.5 165 c 128,-1,23
 472 177 472 177 479 198 c 128,-1,24
 486 219 486 219 486 252 c 2,25,-1
 486 878 l 1,0,-1
EndSplineSet
Validated: 1
EndChar

StartChar: V
Encoding: 86 86 36
Width: 614
GlyphClass: 2
Flags: W
LayerCount: 2
Fore
SplineSet
307 429 m 1,0,-1
 459 878 l 1,1,-1
 611 878 l 1,2,-1
 307 -21 l 1,3,-1
 3 878 l 1,4,-1
 155 878 l 1,5,-1
 307 429 l 1,0,-1
EndSplineSet
Validated: 1
EndChar

StartChar: W
Encoding: 87 87 37
Width: 982
GlyphClass: 2
Flags: W
LayerCount: 2
Fore
SplineSet
643 429 m 1,0,-1
 815 878 l 1,1,-1
 967 878 l 1,2,-1
 643 -21 l 1,3,-1
 491 428 l 1,4,-1
 339 -21 l 1,5,-1
 15 878 l 1,6,-1
 167 878 l 1,7,-1
 339 429 l 1,8,-1
 491 878 l 1,9,-1
 643 429 l 1,0,-1
EndSplineSet
Validated: 1
EndChar

StartChar: X
Encoding: 88 88 38
Width: 720
GlyphClass: 2
Flags: W
LayerCount: 2
Fore
SplineSet
201 878 m 1,0,-1
 360 598 l 1,1,-1
 519 878 l 1,2,-1
 702 878 l 1,3,-1
 451 438 l 1,4,-1
 701 0 l 1,5,-1
 518 0 l 1,6,-1
 360 277 l 1,7,-1
 202 0 l 1,8,-1
 19 0 l 1,9,-1
 268 438 l 1,10,-1
 18 878 l 1,11,-1
 201 878 l 1,0,-1
EndSplineSet
Validated: 1
EndChar

StartChar: Y
Encoding: 89 89 39
Width: 652
GlyphClass: 2
Flags: W
LayerCount: 2
Fore
SplineSet
326 377 m 1,0,-1
 510 878 l 1,1,-1
 662 878 l 1,2,-1
 402 155 l 1,3,-1
 402 0 l 1,4,-1
 249 0 l 1,5,-1
 249 155 l 1,6,-1
 -10 878 l 1,7,-1
 142 878 l 1,8,-1
 326 377 l 1,0,-1
EndSplineSet
Validated: 1
EndChar

StartChar: Z
Encoding: 90 90 40
Width: 677
GlyphClass: 2
Flags: W
LayerCount: 2
Fore
SplineSet
380 725 m 1,0,-1
 74 725 l 1,1,-1
 74 878 l 1,2,-1
 613 878 l 1,3,-1
 292 153 l 1,4,-1
 597 153 l 1,5,-1
 597 0 l 1,6,-1
 59 0 l 1,7,-1
 380 725 l 1,0,-1
EndSplineSet
Validated: 1
EndChar

StartChar: ordmasculine
Encoding: 186 186 42
Width: 463
GlyphClass: 2
Flags: W
LayerCount: 2
Fore
SplineSet
393 532 m 1,0,-1
 393 437 l 1,1,-1
 70 437 l 1,2,-1
 70 532 l 1,3,-1
 393 532 l 1,0,-1
70 729 m 0,4,5
 70 763 70 763 82.5 792.5 c 128,-1,6
 95 822 95 822 117 844 c 128,-1,7
 139 866 139 866 168.5 878.5 c 128,-1,8
 198 891 198 891 232 891 c 0,9,10
 265 891 265 891 294.5 878.5 c 128,-1,11
 324 866 324 866 346 844 c 128,-1,12
 368 822 368 822 380.5 792.5 c 128,-1,13
 393 763 393 763 393 729 c 0,14,15
 393 696 393 696 380.5 666.5 c 128,-1,16
 368 637 368 637 346 615.5 c 128,-1,17
 324 594 324 594 294.5 581 c 128,-1,18
 265 568 265 568 232 568 c 0,19,20
 198 568 198 568 168.5 581 c 128,-1,21
 139 594 139 594 117 615.5 c 128,-1,22
 95 637 95 637 82.5 666.5 c 128,-1,23
 70 696 70 696 70 729 c 0,4,5
152 729 m 0,24,25
 152 713 152 713 158.5 699 c 128,-1,26
 165 685 165 685 175.5 674 c 128,-1,27
 186 663 186 663 200.5 656.5 c 128,-1,28
 215 650 215 650 232 650 c 0,29,30
 266 650 266 650 289.5 673.5 c 128,-1,31
 313 697 313 697 313 729 c 0,32,33
 313 762 313 762 289.5 785 c 128,-1,34
 266 808 266 808 232 808 c 0,35,36
 199 808 199 808 175.5 785 c 128,-1,37
 152 762 152 762 152 729 c 0,24,25
EndSplineSet
Validated: 1
EndChar

StartChar: a
Encoding: 97 97 46
Width: 648
Flags: W
LayerCount: 2
Fore
SplineSet
263 307 m 1,0,-1
 386 307 l 1,1,-1
 324 479 l 1,2,-1
 263 307 l 1,3,-1
 263 307 l 1,0,-1
207 154 m 1,4,-1
 152 1 l 1,5,-1
 0 1 l 1,6,-1
 324 900 l 1,7,-1
 648 1 l 1,8,-1
 496 1 l 1,9,-1
 441 154 l 1,10,-1
 207 154 l 1,11,-1
 207 154 l 1,4,-1
EndSplineSet
EndChar

StartChar: b
Encoding: 98 98 47
Width: 742
Flags: W
LayerCount: 2
Fore
SplineSet
274 449 m 1,0,-1
 274 153 l 1,1,-1
 382 153 l 2,2,3
 448 153 448 153 485.5 186.5 c 128,-1,4
 523 220 523 220 523 300 c 0,5,6
 523 333 523 333 516 360 c 128,-1,7
 509 387 509 387 492.5 407 c 128,-1,8
 476 427 476 427 449 438 c 128,-1,9
 422 449 422 449 382 449 c 2,10,-1
 274 449 l 1,0,-1
274 724 m 1,11,-1
 274 602 l 1,12,-1
 330 602 l 2,13,14
 337 602 337 602 346.5 603.5 c 128,-1,15
 356 605 356 605 365 611.5 c 128,-1,16
 374 618 374 618 380 631.5 c 128,-1,17
 386 645 386 645 386 669 c 0,18,19
 386 687 386 687 380 698 c 128,-1,20
 374 709 374 709 365 714.5 c 128,-1,21
 356 720 356 720 346.5 722 c 128,-1,22
 337 724 337 724 330 724 c 2,23,-1
 274 724 l 1,11,-1
121 878 m 1,24,-1
 303 878 l 2,25,26
 374 878 374 878 418.5 855 c 128,-1,27
 463 832 463 832 488 799.5 c 128,-1,28
 513 767 513 767 522 733.5 c 128,-1,29
 531 700 531 700 531 679 c 0,30,31
 531 653 531 653 524.5 631.5 c 128,-1,32
 518 610 518 610 510 595 c 0,33,34
 501 577 501 577 490 563 c 1,35,36
 543 557 543 557 584 525 c 0,37,38
 602 511 602 511 618.5 491 c 128,-1,39
 635 471 635 471 648.5 442 c 128,-1,40
 662 413 662 413 670 374.5 c 128,-1,41
 678 336 678 336 678 286 c 0,42,43
 678 214 678 214 658.5 165.5 c 128,-1,44
 639 117 639 117 608.5 85 c 128,-1,45
 578 53 578 53 541 36 c 128,-1,46
 504 19 504 19 469.5 11 c 128,-1,47
 435 3 435 3 407.5 1.5 c 128,-1,48
 380 0 380 0 368 0 c 2,49,-1
 121 0 l 1,50,-1
 121 878 l 1,24,-1
EndSplineSet
EndChar

StartChar: c
Encoding: 99 99 48
Width: 610
Flags: W
LayerCount: 2
Fore
SplineSet
564 725 m 1,0,1
 546 731 546 731 526 734.5 c 128,-1,2
 506 738 506 738 485 738 c 0,3,4
 426 738 426 738 376 714 c 128,-1,5
 326 690 326 690 289.5 648.5 c 128,-1,6
 253 607 253 607 232 551.5 c 128,-1,7
 211 496 211 496 211 434 c 256,8,9
 211 372 211 372 232 318 c 128,-1,10
 253 264 253 264 289.5 224.5 c 128,-1,11
 326 185 326 185 376 162.5 c 128,-1,12
 426 140 426 140 485 140 c 0,13,14
 526 140 526 140 564 152 c 1,15,-1
 564 2 l 1,16,17
 549 0 549 0 535 -2 c 0,18,19
 523 -4 523 -4 509.5 -5 c 128,-1,20
 496 -6 496 -6 485 -6 c 0,21,22
 397 -6 397 -6 320.5 28.5 c 128,-1,23
 244 63 244 63 187 122.5 c 128,-1,24
 130 182 130 182 97.5 262 c 128,-1,25
 65 342 65 342 65 434 c 256,26,27
 65 526 65 526 97.5 607.5 c 128,-1,28
 130 689 130 689 187 750.5 c 128,-1,29
 244 812 244 812 320.5 848 c 128,-1,30
 397 884 397 884 485 884 c 0,31,32
 496 884 496 884 509.5 883 c 128,-1,33
 523 882 523 882 535 880 c 0,34,35
 549 878 549 878 564 876 c 1,36,-1
 564 725 l 1,0,1
EndSplineSet
EndChar

StartChar: d
Encoding: 100 100 49
Width: 741
Flags: W
LayerCount: 2
Fore
SplineSet
274 153 m 1,0,1
 328 157 328 157 374.5 180.5 c 128,-1,2
 421 204 421 204 455.5 242 c 128,-1,3
 490 280 490 280 509.5 330.5 c 128,-1,4
 529 381 529 381 529 439 c 0,5,6
 529 493 529 493 509.5 541 c 128,-1,7
 490 589 490 589 455.5 626.5 c 128,-1,8
 421 664 421 664 374.5 687 c 128,-1,9
 328 710 328 710 274 714 c 1,10,-1
 274 153 l 1,0,1
274 879 m 1,11,12
 358 871 358 871 431 834.5 c 128,-1,13
 504 798 504 798 557.5 739.5 c 128,-1,14
 611 681 611 681 641.5 604 c 128,-1,15
 672 527 672 527 672 439 c 0,16,17
 672 350 672 350 641.5 272 c 128,-1,18
 611 194 611 194 557.5 134.5 c 128,-1,19
 504 75 504 75 431 39.5 c 128,-1,20
 358 4 358 4 274 0 c 1,21,-1
 121 0 l 1,22,-1
 121 879 l 1,23,-1
 274 879 l 1,11,12
EndSplineSet
EndChar

StartChar: e
Encoding: 101 101 50
Width: 688
Flags: W
LayerCount: 2
Fore
SplineSet
121 0 m 1,0,-1
 121 878 l 1,1,-1
 570 878 l 1,2,-1
 570 724 l 1,3,-1
 274 724 l 1,4,-1
 274 602 l 1,5,-1
 478 602 l 1,6,-1
 478 438 l 1,7,-1
 274 438 l 1,8,-1
 274 153 l 1,9,-1
 621 153 l 1,10,-1
 621 0 l 1,11,-1
 121 0 l 1,12,-1
 121 0 l 1,0,-1
EndSplineSet
EndChar

StartChar: f
Encoding: 102 102 51
Width: 641
Flags: W
LayerCount: 2
Fore
SplineSet
274 0 m 1,0,-1
 121 0 l 1,1,-1
 121 878 l 1,2,-1
 590 878 l 1,3,-1
 590 724 l 1,4,-1
 274 724 l 1,5,-1
 274 602 l 1,6,-1
 479 602 l 1,7,-1
 479 438 l 1,8,-1
 274 438 l 1,9,-1
 274 0 l 1,0,-1
EndSplineSet
EndChar

StartChar: g
Encoding: 103 103 52
Width: 673
Flags: W
LayerCount: 2
Fore
SplineSet
499 722 m 0,0,1
 435 722 435 722 384.5 700 c 128,-1,2
 334 678 334 678 299 639 c 128,-1,3
 264 600 264 600 245.5 546 c 128,-1,4
 227 492 227 492 227 427 c 0,5,6
 227 306 227 306 286 238 c 128,-1,7
 345 170 345 170 459 155 c 1,8,-1
 459 427 l 1,9,-1
 370 427 l 1,10,-1
 370 579 l 1,11,-1
 601 579 l 1,12,-1
 601 4 l 1,13,14
 578 -4 578 -4 554.5 -5 c 128,-1,15
 531 -6 531 -6 499 -6 c 0,16,17
 409 -6 409 -6 329.5 26 c 128,-1,18
 250 58 250 58 191.5 116 c 128,-1,19
 133 174 133 174 99 253 c 128,-1,20
 65 332 65 332 65 427 c 256,21,22
 65 522 65 522 99 605 c 128,-1,23
 133 688 133 688 191.5 749.5 c 128,-1,24
 250 811 250 811 329.5 846.5 c 128,-1,25
 409 882 409 882 499 882 c 0,26,27
 531 882 531 882 554.5 881 c 128,-1,28
 578 880 578 880 601 873 c 1,29,-1
 601 711 l 1,30,31
 578 719 578 719 554.5 720.5 c 128,-1,32
 531 722 531 722 499 722 c 0,0,1
EndSplineSet
EndChar

StartChar: h
Encoding: 104 104 53
Width: 701
Flags: W
LayerCount: 2
Fore
SplineSet
427 448 m 1,0,-1
 274 448 l 1,1,-1
 274 0 l 1,2,-1
 121 0 l 1,3,-1
 121 878 l 1,4,-1
 274 878 l 1,5,-1
 274 602 l 1,6,-1
 427 602 l 1,7,-1
 427 878 l 1,8,-1
 580 878 l 1,9,-1
 580 0 l 1,10,-1
 427 0 l 1,11,-1
 427 448 l 1,12,-1
 427 448 l 1,0,-1
427 602 m 1,13,-1
 274 602 l 1,14,-1
 427 602 l 1,15,-1
 427 602 l 1,13,-1
EndSplineSet
EndChar

StartChar: i
Encoding: 105 105 54
Width: 395
Flags: W
LayerCount: 2
Fore
SplineSet
274 878 m 1,0,-1
 274 0 l 1,1,-1
 121 0 l 1,2,-1
 121 878 l 1,3,-1
 274 878 l 1,0,-1
EndSplineSet
EndChar

StartChar: j
Encoding: 106 106 55
Width: 667
Flags: W
LayerCount: 2
Fore
SplineSet
38 266 m 1,0,-1
 178 266 l 1,1,2
 178 243 178 243 184 221.5 c 128,-1,3
 190 200 190 200 202 183 c 128,-1,4
 214 166 214 166 233 155.5 c 128,-1,5
 252 145 252 145 278 145 c 0,6,7
 347 145 347 145 373.5 175 c 128,-1,8
 400 205 400 205 400 266 c 2,9,-1
 400 727 l 1,10,-1
 258 727 l 1,11,-1
 258 878 l 1,12,-1
 553 878 l 1,13,-1
 553 245 l 2,14,15
 553 180 553 180 537 136 c 128,-1,16
 521 92 521 92 496 64 c 128,-1,17
 471 36 471 36 439 21.5 c 128,-1,18
 407 7 407 7 376 1 c 128,-1,19
 345 -5 345 -5 317 -5.5 c 128,-1,20
 289 -6 289 -6 271 -6 c 0,21,22
 229 -6 229 -6 187.5 12.5 c 128,-1,23
 146 31 146 31 113 65 c 128,-1,24
 80 99 80 99 59 147.5 c 128,-1,25
 38 196 38 196 38 256 c 2,26,-1
 38 266 l 1,0,-1
EndSplineSet
EndChar

StartChar: k
Encoding: 107 107 56
Width: 670
Flags: W
LayerCount: 2
Fore
SplineSet
274 0 m 1,0,-1
 121 0 l 1,1,-1
 121 878 l 1,2,-1
 274 878 l 1,3,-1
 274 593 l 1,4,-1
 421 878 l 1,5,-1
 598 878 l 1,6,-1
 414 522 l 1,7,-1
 652 0 l 1,8,-1
 481 0 l 1,9,-1
 274 454 l 1,10,-1
 274 0 l 1,0,-1
EndSplineSet
EndChar

StartChar: l
Encoding: 108 108 57
Width: 661
Flags: W
LayerCount: 2
Fore
SplineSet
274 878 m 1,0,-1
 274 153 l 1,1,-1
 621 153 l 1,2,-1
 621 0 l 1,3,-1
 121 0 l 1,4,-1
 121 878 l 1,5,-1
 274 878 l 1,6,-1
 274 878 l 1,0,-1
EndSplineSet
EndChar

StartChar: m
Encoding: 109 109 58
Width: 823
Flags: W
LayerCount: 2
Fore
SplineSet
559 879 m 1,0,-1
 702 879 l 1,1,-1
 702 0 l 1,2,-1
 549 0 l 1,3,-1
 549 563 l 1,4,-1
 406 400 l 1,5,-1
 274 563 l 1,6,-1
 274 0 l 1,7,-1
 121 0 l 1,8,-1
 121 879 l 1,9,-1
 254 879 l 1,10,-1
 406 655 l 1,11,-1
 559 879 l 1,12,-1
 559 879 l 1,0,-1
EndSplineSet
EndChar

StartChar: n
Encoding: 110 110 59
Width: 761
Flags: W
LayerCount: 2
Fore
SplineSet
274 446 m 1,0,-1
 274 0 l 1,1,-1
 121 0 l 1,2,-1
 121 899 l 1,3,-1
 487 433 l 1,4,-1
 487 878 l 1,5,-1
 640 878 l 1,6,-1
 640 -20 l 1,7,-1
 274 446 l 1,0,-1
EndSplineSet
EndChar

StartChar: o
Encoding: 111 111 60
Width: 951
Flags: W
LayerCount: 2
Fore
SplineSet
219 434 m 256,0,1
 219 374 219 374 238 321.5 c 128,-1,2
 257 269 257 269 290.5 231 c 128,-1,3
 324 193 324 193 371 171 c 128,-1,4
 418 149 418 149 475 149 c 256,5,6
 532 149 532 149 579.5 171 c 128,-1,7
 627 193 627 193 660.5 231 c 128,-1,8
 694 269 694 269 713 321.5 c 128,-1,9
 732 374 732 374 732 434 c 256,10,11
 732 494 732 494 713 548 c 128,-1,12
 694 602 694 602 660.5 642 c 128,-1,13
 627 682 627 682 579.5 705.5 c 128,-1,14
 532 729 532 729 475 729 c 256,15,16
 418 729 418 729 371 705.5 c 128,-1,17
 324 682 324 682 290.5 642 c 128,-1,18
 257 602 257 602 238 548 c 128,-1,19
 219 494 219 494 219 434 c 256,0,1
65 434 m 256,20,21
 65 526 65 526 96 607.5 c 128,-1,22
 127 689 127 689 182 750.5 c 128,-1,23
 237 812 237 812 312 848 c 128,-1,24
 387 884 387 884 475 884 c 256,25,26
 563 884 563 884 638.5 848 c 128,-1,27
 714 812 714 812 769 750.5 c 128,-1,28
 824 689 824 689 855 607.5 c 128,-1,29
 886 526 886 526 886 434 c 256,30,31
 886 342 886 342 855 262 c 128,-1,32
 824 182 824 182 769 122.5 c 128,-1,33
 714 63 714 63 638.5 28.5 c 128,-1,34
 563 -6 563 -6 475 -6 c 256,35,36
 387 -6 387 -6 312 28.5 c 128,-1,37
 237 63 237 63 182 122.5 c 128,-1,38
 127 182 127 182 96 262 c 128,-1,39
 65 342 65 342 65 434 c 256,20,21
EndSplineSet
EndChar

StartChar: p
Encoding: 112 112 61
Width: 701
Flags: W
LayerCount: 2
Fore
SplineSet
273 724 m 1,0,-1
 273 307 l 1,1,2
 319 307 319 307 359.5 323.5 c 128,-1,3
 400 340 400 340 430.5 368.5 c 128,-1,4
 461 397 461 397 479 436 c 128,-1,5
 497 475 497 475 497 521 c 0,6,7
 497 563 497 563 479 600 c 128,-1,8
 461 637 461 637 430.5 664.5 c 128,-1,9
 400 692 400 692 359.5 708 c 128,-1,10
 319 724 319 724 273 724 c 1,0,-1
283 877 m 2,11,12
 359 877 359 877 426 848.5 c 128,-1,13
 493 820 493 820 542.5 771.5 c 128,-1,14
 592 723 592 723 620.5 658 c 128,-1,15
 649 593 649 593 649 521 c 256,16,17
 649 449 649 449 620.5 384 c 128,-1,18
 592 319 592 319 542.5 270.5 c 128,-1,19
 493 222 493 222 426 193.5 c 128,-1,20
 359 165 359 165 283 165 c 2,21,-1
 273 165 l 1,22,-1
 273 0 l 1,23,-1
 121 0 l 1,24,-1
 121 877 l 1,25,-1
 273 877 l 1,26,-1
 283 877 l 2,11,12
EndSplineSet
EndChar

StartChar: q
Encoding: 113 113 62
Width: 1022
Flags: W
LayerCount: 2
Fore
SplineSet
209 435 m 256,0,1
 209 374 209 374 232.5 320 c 128,-1,2
 256 266 256 266 296.5 225.5 c 128,-1,3
 337 185 337 185 391 161.5 c 128,-1,4
 445 138 445 138 506 138 c 0,5,6
 534 138 534 138 562 144.5 c 128,-1,7
 590 151 590 151 616 162.5 c 128,-1,8
 642 174 642 174 665 189.5 c 128,-1,9
 688 205 688 205 706 223 c 1,10,11
 692 231 692 231 670.5 237 c 128,-1,12
 649 243 649 243 620 243 c 1,13,-1
 611 377 l 1,14,15
 643 377 643 377 667 372 c 128,-1,16
 691 367 691 367 710 360 c 128,-1,17
 729 353 729 353 744 344 c 128,-1,18
 759 335 759 335 773 328 c 1,19,20
 781 357 781 357 787 381.5 c 128,-1,21
 793 406 793 406 793 435 c 0,22,23
 793 496 793 496 769.5 549.5 c 128,-1,24
 746 603 746 603 706.5 643.5 c 128,-1,25
 667 684 667 684 615 707.5 c 128,-1,26
 563 731 563 731 506 731 c 0,27,28
 445 731 445 731 391 707.5 c 128,-1,29
 337 684 337 684 296.5 643.5 c 128,-1,30
 256 603 256 603 232.5 549.5 c 128,-1,31
 209 496 209 496 209 435 c 256,0,1
65 435 m 0,32,33
 65 528 65 528 98.5 610 c 128,-1,34
 132 692 132 692 191.5 752.5 c 128,-1,35
 251 813 251 813 331.5 848.5 c 128,-1,36
 412 884 412 884 506 884 c 0,37,38
 595 884 595 884 673.5 848.5 c 128,-1,39
 752 813 752 813 810.5 752.5 c 128,-1,40
 869 692 869 692 902.5 610 c 128,-1,41
 936 528 936 528 936 435 c 0,42,43
 936 377 936 377 923 325.5 c 128,-1,44
 910 274 910 274 888 223 c 1,45,46
 899 205 899 205 907.5 189.5 c 128,-1,47
 916 174 916 174 929.5 162.5 c 128,-1,48
 943 151 943 151 964.5 144.5 c 128,-1,49
 986 138 986 138 1022 138 c 1,50,-1
 1022 -6 l 1,51,52
 968 -6 968 -6 934 4 c 128,-1,53
 900 14 900 14 877.5 31 c 128,-1,54
 855 48 855 48 840.5 70.5 c 128,-1,55
 826 93 826 93 812 118 c 1,56,57
 746 60 746 60 669 27 c 128,-1,58
 592 -6 592 -6 506 -6 c 0,59,60
 412 -6 412 -6 331.5 27.5 c 128,-1,61
 251 61 251 61 191.5 120.5 c 128,-1,62
 132 180 132 180 98.5 260.5 c 128,-1,63
 65 341 65 341 65 435 c 0,32,33
EndSplineSet
EndChar

StartChar: r
Encoding: 114 114 63
Width: 671
Flags: W
LayerCount: 2
Fore
SplineSet
274 337 m 1,0,1
 352 337 352 337 408 390 c 0,2,3
 467 445 467 445 467 519 c 256,4,5
 467 595 467 595 408 650 c 0,6,7
 351 704 351 704 274 704 c 1,8,-1
 274 337 l 1,0,1
274 0 m 1,9,-1
 121 0 l 1,10,-1
 121 877 l 1,11,-1
 223 877 l 2,12,13
 407 877 407 877 516 772 c 0,14,15
 567 723 567 723 593.5 657.5 c 128,-1,16
 620 592 620 592 620 519 c 0,17,18
 620 420 620 420 571 340 c 128,-1,19
 522 260 522 260 438 214 c 1,20,-1
 610 0 l 1,21,-1
 416 0 l 1,22,-1
 314 172 l 1,23,24
 285.583 161.917 285.583 161.917 275.653 161.917 c 0,25,26
 274.75 161.917 274.75 161.917 274 162 c 0,27,-1
 274 0 l 1,9,-1
EndSplineSet
EndChar

StartChar: s
Encoding: 115 115 64
Width: 747
Flags: W
LayerCount: 2
Fore
SplineSet
203 307 m 1,0,1
 207 273 207 273 220 243 c 128,-1,2
 233 213 233 213 253 191 c 128,-1,3
 273 169 273 169 301.5 156.5 c 128,-1,4
 330 144 330 144 366 144 c 0,5,6
 412 144 412 144 442 159 c 128,-1,7
 472 174 472 174 490 198 c 128,-1,8
 508 222 508 222 515 250.5 c 128,-1,9
 522 279 522 279 522 306 c 0,10,11
 522 345 522 345 498 376 c 128,-1,12
 474 407 474 407 437.5 434.5 c 128,-1,13
 401 462 401 462 359 489 c 128,-1,14
 317 516 317 516 280.5 547.5 c 128,-1,15
 244 579 244 579 220 617.5 c 128,-1,16
 196 656 196 656 196 706 c 0,17,18
 196 743 196 743 211.5 776.5 c 128,-1,19
 227 810 227 810 253.5 835 c 128,-1,20
 280 860 280 860 314 875 c 128,-1,21
 348 890 348 890 385 890 c 256,22,23
 422 890 422 890 457 875 c 128,-1,24
 492 860 492 860 519.5 835 c 128,-1,25
 547 810 547 810 563.5 776.5 c 128,-1,26
 580 743 580 743 580 706 c 1,27,-1
 436 706 l 1,28,29
 436 724 436 724 423.5 737 c 128,-1,30
 411 750 411 750 392 750 c 0,31,32
 375 750 375 750 362 737 c 128,-1,33
 349 724 349 724 349 706 c 0,34,35
 349 682 349 682 374 660.5 c 128,-1,36
 399 639 399 639 436.5 615 c 128,-1,37
 474 591 474 591 517.5 562.5 c 128,-1,38
 561 534 561 534 598.5 496.5 c 128,-1,39
 636 459 636 459 661 411 c 128,-1,40
 686 363 686 363 686 300 c 0,41,42
 686 249 686 249 667 194 c 128,-1,43
 648 139 648 139 610.5 94 c 128,-1,44
 573 49 573 49 516 19.5 c 128,-1,45
 459 -10 459 -10 384 -10 c 0,46,47
 308 -10 308 -10 249 14 c 128,-1,48
 190 38 190 38 148 80 c 128,-1,49
 106 122 106 122 81.5 180 c 128,-1,50
 57 238 57 238 50 307 c 1,51,-1
 203 307 l 1,0,1
EndSplineSet
EndChar

StartChar: t
Encoding: 116 116 65
Width: 609
Flags: W
LayerCount: 2
Fore
SplineSet
381 0 m 1,0,-1
 228 0 l 1,1,-1
 228 724 l 1,2,-1
 38 724 l 1,3,-1
 38 878 l 1,4,-1
 571 878 l 1,5,-1
 571 724 l 1,6,-1
 381 724 l 1,7,-1
 381 0 l 1,0,-1
EndSplineSet
EndChar

StartChar: u
Encoding: 117 117 66
Width: 749
Flags: W
LayerCount: 2
Fore
SplineSet
486 878 m 1,0,-1
 639 878 l 1,1,-1
 639 204 l 2,2,3
 639 155 639 155 617 116 c 128,-1,4
 595 77 595 77 558.5 50 c 128,-1,5
 522 23 522 23 475.5 8.5 c 128,-1,6
 429 -6 429 -6 380 -6 c 256,7,8
 331 -6 331 -6 282.5 8.5 c 128,-1,9
 234 23 234 23 196 50 c 128,-1,10
 158 77 158 77 134 116 c 128,-1,11
 110 155 110 155 110 204 c 2,12,-1
 110 878 l 1,13,-1
 263 878 l 1,14,-1
 263 252 l 2,15,16
 263 219 263 219 271.5 198 c 128,-1,17
 280 177 280 177 295.5 165 c 128,-1,18
 311 153 311 153 332.5 148.5 c 128,-1,19
 354 144 354 144 380 144 c 256,20,21
 406 144 406 144 425.5 148.5 c 128,-1,22
 445 153 445 153 458.5 165 c 128,-1,23
 472 177 472 177 479 198 c 128,-1,24
 486 219 486 219 486 252 c 2,25,-1
 486 878 l 1,0,-1
EndSplineSet
EndChar

StartChar: v
Encoding: 118 118 67
Width: 614
Flags: W
LayerCount: 2
Fore
SplineSet
307 429 m 1,0,-1
 459 878 l 1,1,-1
 611 878 l 1,2,-1
 307 -21 l 1,3,-1
 3 878 l 1,4,-1
 155 878 l 1,5,-1
 307 429 l 1,0,-1
EndSplineSet
EndChar

StartChar: w
Encoding: 119 119 68
Width: 982
Flags: W
LayerCount: 2
Fore
SplineSet
643 429 m 1,0,-1
 815 878 l 1,1,-1
 967 878 l 1,2,-1
 643 -21 l 1,3,-1
 491 428 l 1,4,-1
 339 -21 l 1,5,-1
 15 878 l 1,6,-1
 167 878 l 1,7,-1
 339 429 l 1,8,-1
 491 878 l 1,9,-1
 643 429 l 1,0,-1
EndSplineSet
EndChar

StartChar: x
Encoding: 120 120 69
Width: 720
Flags: W
LayerCount: 2
Fore
SplineSet
201 878 m 1,0,-1
 360 598 l 1,1,-1
 519 878 l 1,2,-1
 702 878 l 1,3,-1
 451 438 l 1,4,-1
 701 0 l 1,5,-1
 518 0 l 1,6,-1
 360 277 l 1,7,-1
 202 0 l 1,8,-1
 19 0 l 1,9,-1
 268 438 l 1,10,-1
 18 878 l 1,11,-1
 201 878 l 1,0,-1
EndSplineSet
EndChar

StartChar: y
Encoding: 121 121 70
Width: 652
Flags: W
LayerCount: 2
Fore
SplineSet
326 377 m 1,0,-1
 510 878 l 1,1,-1
 662 878 l 1,2,-1
 402 155 l 1,3,-1
 402 0 l 1,4,-1
 249 0 l 1,5,-1
 249 155 l 1,6,-1
 -10 878 l 1,7,-1
 142 878 l 1,8,-1
 326 377 l 1,0,-1
EndSplineSet
EndChar

StartChar: z
Encoding: 122 122 71
Width: 677
Flags: W
LayerCount: 2
Fore
SplineSet
380 725 m 1,0,-1
 74 725 l 1,1,-1
 74 878 l 1,2,-1
 613 878 l 1,3,-1
 292 153 l 1,4,-1
 597 153 l 1,5,-1
 597 0 l 1,6,-1
 59 0 l 1,7,-1
 380 725 l 1,0,-1
EndSplineSet
EndChar

StartChar: grave
Encoding: 96 96 72
Width: 1000
VWidth: 0
LayerCount: 2
Fore
SplineSet
263 938 m 5,0,-1
 416 938 l 5,1,-1
 416 806 l 5,2,-1
 361 806 l 5,3,-1
 263 938 l 5,0,-1
EndSplineSet
EndChar

StartChar: Agrave
Encoding: 192 192 73
Width: 648
Flags: W
LayerCount: 2
Fore
SplineSet
263 307 m 1,0,-1
 386 307 l 1,1,-1
 324 479 l 1,2,-1
 263 307 l 1,3,-1
 263 307 l 1,0,-1
207 154 m 1,4,-1
 152 1 l 1,5,-1
 0 1 l 1,6,-1
 324 900 l 1,7,-1
 648 1 l 1,8,-1
 496 1 l 1,9,-1
 441 154 l 1,10,-1
 207 154 l 1,11,-1
 207 154 l 1,4,-1
EndSplineSet
Refer: 72 96 N 1 0 0 1 -87 252 2
EndChar

StartChar: acute
Encoding: 180 180 74
Width: 1000
VWidth: 0
Flags: W
LayerCount: 2
Fore
SplineSet
416 943 m 5,0,-1
 263 943 l 5,1,-1
 263 811 l 5,2,-1
 318 811 l 5,3,-1
 416 943 l 5,0,-1
EndSplineSet
EndChar

StartChar: Aacute
Encoding: 193 193 75
Width: 648
Flags: W
LayerCount: 2
Fore
SplineSet
263 307 m 1,0,-1
 386 307 l 1,1,-1
 324 479 l 1,2,-1
 263 307 l 1,3,-1
 263 307 l 1,0,-1
207 154 m 1,4,-1
 152 1 l 1,5,-1
 0 1 l 1,6,-1
 324 900 l 1,7,-1
 648 1 l 1,8,-1
 496 1 l 1,9,-1
 441 154 l 1,10,-1
 207 154 l 1,11,-1
 207 154 l 1,4,-1
EndSplineSet
Refer: 74 180 N 1 0 0 1 57 111 2
EndChar

